<svg width="73" height="72" viewBox="0 0 73 72" fill="none" xmlns="http://www.w3.org/2000/svg">
<g clip-path="url(#clip0_2645_942)">
<path fill-rule="evenodd" clip-rule="evenodd" d="M14.7599 16.3467C18.891 10.7632 24.822 7.58019 31.5467 5.8314C39.786 3.68875 48.6047 1.15216 55.8263 5.66724C64.7922 11.2729 73.4231 20.6471 71.9871 31.1156C70.5861 41.3286 57.948 44.0953 49.7056 50.2866C40.3624 57.3047 33.215 71.8051 21.9394 68.7086C10.6222 65.6008 8.86945 50.2567 7.27593 38.6347C6.15556 30.4636 9.85585 22.9748 14.7599 16.3467Z" fill="#B3E3FF"/>
<g clip-path="url(#clip1_2645_942)">
<g clip-path="url(#clip2_2645_942)">
<path d="M30.332 46.9688C28.4682 46.9688 26.957 45.4576 26.957 43.5938V40.2188C26.957 38.3549 28.4682 36.8438 30.332 36.8438V46.9688Z" fill="#6FA4D8"/>
</g>
<g clip-path="url(#clip3_2645_942)">
<path d="M43.832 46.9688C45.6959 46.9688 47.207 45.4576 47.207 43.5938V40.2188C47.207 38.3549 45.6959 36.8438 43.832 36.8438V46.9688Z" fill="#5C76B2"/>
</g>
<g clip-path="url(#clip4_2645_942)">
<path d="M43.832 21.6562H30.332C28.4682 21.6562 26.957 23.1674 26.957 25.0312V33.4688C26.957 35.3326 28.4682 36.8438 30.332 36.8438V46.9688C30.332 49.7649 32.5983 52.0312 35.3945 52.0312H38.7695C41.5657 52.0312 43.832 49.7649 43.832 46.9688V36.8438C45.6959 36.8438 47.207 35.3326 47.207 33.4688V25.0312C47.207 23.1674 45.6959 21.6562 43.832 21.6562Z" fill="#F68820"/>
</g>
<g clip-path="url(#clip5_2645_942)">
<path d="M33.707 21.6562H25.2695C24.3372 21.6562 23.582 20.9011 23.582 19.9688V19.125C23.582 18.6593 23.204 18.2812 22.7383 18.2812C22.2725 18.2812 21.8945 18.6593 21.8945 19.125V21.6562C21.8945 23.5201 23.4057 25.0312 25.2695 25.0312H32.0195C34.8157 25.0312 37.082 27.2976 37.082 30.0938V25.0312C37.082 23.1674 35.5709 21.6562 33.707 21.6562Z" fill="#6FA4D8"/>
</g>
<g clip-path="url(#clip6_2645_942)">
<path d="M40.457 21.6562H48.8945C49.8269 21.6562 50.582 20.9011 50.582 19.9688V19.125C50.582 18.6593 50.96 18.2812 51.4258 18.2812C51.8915 18.2812 52.2695 18.6593 52.2695 19.125V21.6562C52.2695 23.5201 50.7584 25.0312 48.8945 25.0312H42.1445C39.3483 25.0312 37.082 27.2976 37.082 30.0938V25.0312C37.082 23.1674 38.5932 21.6562 40.457 21.6562Z" fill="#5C76B2"/>
</g>
<g clip-path="url(#clip7_2645_942)">
<g clip-path="url(#clip8_2645_942)">
<path d="M50.582 58.7812V62.1563H21.8945V58.7812H50.582Z" fill="#F68820"/>
</g>
<g clip-path="url(#clip9_2645_942)">
<path d="M50.582 52.0312V55.4063H21.8945V52.0312H50.582Z" fill="#FBD301"/>
</g>
<g clip-path="url(#clip10_2645_942)">
<path d="M21.8945 55.4062H50.582V58.7812H21.8945V55.4062Z" fill="#FBBE18"/>
</g>
<g clip-path="url(#clip11_2645_942)">
<path d="M21.8952 52.0312L12.5245 56.7166C12.2132 56.8718 12.2132 57.3157 12.5245 57.4709L21.8952 62.1562V52.0312Z" fill="#DB9E68"/>
</g>
<g clip-path="url(#clip12_2645_942)">
<path d="M21.8946 52.0312L12.5239 56.7166C12.3686 56.7942 12.291 56.9436 12.291 57.0937H21.8946V52.0312Z" fill="#EEC78E"/>
</g>
<g clip-path="url(#clip13_2645_942)">
<path d="M13.4577 56.25L12.5245 56.7166C12.2132 56.8718 12.2132 57.3157 12.5245 57.4709L13.4577 57.9375V56.25Z" fill="#353744"/>
</g>
<g clip-path="url(#clip14_2645_942)">
<path d="M53.957 52.0312V62.1562H50.582V52.0312H53.957Z" fill="#B3B4B6"/>
</g>
<g clip-path="url(#clip15_2645_942)">
<path d="M53.957 52.0312V57.0937H50.582V52.0312H53.957Z" fill="#DBDEE3"/>
</g>
<g clip-path="url(#clip16_2645_942)">
<path d="M60.707 59.625V54.5625C60.707 53.1644 59.5739 52.0312 58.1758 52.0312H53.957V62.1562H57.332H58.1758C59.5739 62.1562 60.707 61.0231 60.707 59.625Z" fill="#353744"/>
</g>
<g clip-path="url(#clip17_2645_942)">
<path d="M60.707 57.0937V54.5625C60.707 53.1644 59.5739 52.0312 58.1758 52.0312H53.957V57.0937H60.707Z" fill="#55525B"/>
</g>
</g>
<g clip-path="url(#clip18_2645_942)">
<path d="M55.6445 14.9062H18.5195C17.5872 14.9062 16.832 14.1511 16.832 13.2188C16.832 12.2864 17.5872 11.5312 18.5195 11.5312H55.6445C56.5769 11.5312 57.332 12.2864 57.332 13.2188C57.332 14.1511 56.5769 14.9062 55.6445 14.9062Z" fill="#353744"/>
</g>
<g clip-path="url(#clip19_2645_942)">
<path d="M38.7695 13.2188C38.7695 12.2864 38.0144 11.5312 37.082 11.5312H18.5195C17.5872 11.5312 16.832 12.2864 16.832 13.2188C16.832 14.1502 17.5872 14.9062 18.5195 14.9062H37.082C38.0144 14.9062 38.7695 14.1502 38.7695 13.2188Z" fill="#55525B"/>
</g>
<g clip-path="url(#clip20_2645_942)">
<path d="M47.6289 21.6562H26.5352C26.0694 21.6562 25.6914 21.2783 25.6914 20.8125V14.9062H48.4727V20.8125C48.4727 21.2783 48.0947 21.6562 47.6289 21.6562Z" fill="#353744"/>
</g>
<g clip-path="url(#clip21_2645_942)">
<path d="M37.082 21.6562H26.5352C26.0694 21.6562 25.6914 21.2782 25.6914 20.8125V18.2812H35.3945C36.3269 18.2812 37.082 19.0364 37.082 19.9688V21.6562Z" fill="#55525B"/>
</g>
<g clip-path="url(#clip22_2645_942)">
<path d="M52.2695 11.5312H53.957V21.6562H52.2695V11.5312Z" fill="#F68820"/>
</g>
<g clip-path="url(#clip23_2645_942)">
<path d="M35.3945 11.5312H53.957C53.957 10.5989 53.2019 9.84375 52.2695 9.84375H37.082C36.1497 9.84375 35.3945 10.5989 35.3945 11.5312Z" fill="#FBBE18"/>
</g>
<g clip-path="url(#clip24_2645_942)">
<path d="M53.1133 23.3438C54.0453 23.3438 54.8008 22.5882 54.8008 21.6562C54.8008 20.7243 54.0453 19.9688 53.1133 19.9688C52.1813 19.9688 51.4258 20.7243 51.4258 21.6562C51.4258 22.5882 52.1813 23.3438 53.1133 23.3438Z" fill="#FBBE18"/>
</g>
<g clip-path="url(#clip25_2645_942)">
<path d="M51.4258 21.6562H54.8008V23.3438H51.4258V21.6562Z" fill="#B3B4B6"/>
</g>
<g clip-path="url(#clip26_2645_942)">
<path d="M51.4258 21.6562H53.1133V23.3438H51.4258V21.6562Z" fill="#DBDEE3"/>
</g>
<g clip-path="url(#clip27_2645_942)">
<path d="M53.1133 30.0938H51.4258C50.96 30.0938 50.582 29.7158 50.582 29.25V24.1875C50.582 23.7218 50.96 23.3438 51.4258 23.3438H53.1133V30.0938Z" fill="#FBBE18"/>
</g>
<g clip-path="url(#clip28_2645_942)">
<path d="M53.1133 30.0938H54.8008C55.2665 30.0938 55.6445 29.7158 55.6445 29.25V24.1875C55.6445 23.7218 55.2665 23.3438 54.8008 23.3438H53.1133V30.0938Z" fill="#F68820"/>
</g>
<g clip-path="url(#clip29_2645_942)">
<path d="M52.2695 30.0938V24.6094C52.2695 24.3765 52.0805 24.1875 51.8477 24.1875C51.6148 24.1875 51.4258 24.3765 51.4258 24.6094V30.0938H52.2695Z" fill="#F68820"/>
</g>
<g clip-path="url(#clip30_2645_942)">
<path d="M54.8008 30.0938V27.1406C54.8008 26.9078 54.6118 26.7188 54.3789 26.7188C54.146 26.7188 53.957 26.9078 53.957 27.1406V30.0938H54.8008Z" fill="#FBBE18"/>
</g>
<g clip-path="url(#clip31_2645_942)">
<path d="M32.0195 35.1562C34.8155 35.1562 37.082 32.8897 37.082 30.0938C37.082 27.2978 34.8155 25.0312 32.0195 25.0312C29.2236 25.0312 26.957 27.2978 26.957 30.0938C26.957 32.8897 29.2236 35.1562 32.0195 35.1562Z" fill="#DBDEE3"/>
</g>
<g clip-path="url(#clip32_2645_942)">
<path d="M32.0195 35.1562C34.8155 35.1562 37.082 32.8897 37.082 30.0938C37.082 27.2978 34.8155 25.0312 32.0195 25.0312C29.2236 25.0312 26.957 27.2978 26.957 30.0938C26.957 32.8897 29.2236 35.1562 32.0195 35.1562Z" fill="#DBDEE3"/>
</g>
<g clip-path="url(#clip33_2645_942)">
<path d="M32.0195 31.7812C32.9515 31.7812 33.707 31.0257 33.707 30.0938C33.707 29.1618 32.9515 28.4062 32.0195 28.4062C31.0876 28.4062 30.332 29.1618 30.332 30.0938C30.332 31.0257 31.0876 31.7812 32.0195 31.7812Z" fill="#55525B"/>
</g>
<g clip-path="url(#clip34_2645_942)">
<path d="M42.1445 35.1562C44.9405 35.1562 47.207 32.8897 47.207 30.0938C47.207 27.2978 44.9405 25.0312 42.1445 25.0312C39.3486 25.0312 37.082 27.2978 37.082 30.0938C37.082 32.8897 39.3486 35.1562 42.1445 35.1562Z" fill="#DBDEE3"/>
</g>
<g clip-path="url(#clip35_2645_942)">
<path d="M42.1445 31.7812C43.0765 31.7812 43.832 31.0257 43.832 30.0938C43.832 29.1618 43.0765 28.4062 42.1445 28.4062C41.2126 28.4062 40.457 29.1618 40.457 30.0938C40.457 31.0257 41.2126 31.7812 42.1445 31.7812Z" fill="#55525B"/>
</g>
<g clip-path="url(#clip36_2645_942)">
<path d="M37.0834 30.0938C38.1297 30.0938 38.8756 31.1088 38.5634 32.1069L37.8884 34.2661C37.642 35.0558 36.524 35.0558 36.2776 34.2661L35.6026 32.1069C35.2913 31.1088 36.0372 30.0938 37.0834 30.0938Z" fill="#55525B"/>
</g>
<g clip-path="url(#clip37_2645_942)">
<path d="M34.5508 38.5312C33.6184 38.5312 32.8633 37.7761 32.8633 36.8438H36.2383C36.2383 37.7761 35.4831 38.5312 34.5508 38.5312Z" fill="#FBBE18"/>
</g>
<g clip-path="url(#clip38_2645_942)">
<path d="M39.6133 38.5312C38.6809 38.5312 37.9258 37.7761 37.9258 36.8438H41.3008C41.3008 37.7761 40.5456 38.5312 39.6133 38.5312Z" fill="#FBBE18"/>
</g>
<g clip-path="url(#clip39_2645_942)">
<path d="M34.5508 45.2812C33.6184 45.2812 32.8633 44.5261 32.8633 43.5938H36.2383C36.2383 44.5261 35.4831 45.2812 34.5508 45.2812Z" fill="#FBBE18"/>
</g>
<g clip-path="url(#clip40_2645_942)">
<path d="M39.6133 45.2812C38.6809 45.2812 37.9258 44.5261 37.9258 43.5938H41.3008C41.3008 44.5261 40.5456 45.2812 39.6133 45.2812Z" fill="#FBBE18"/>
</g>
<g clip-path="url(#clip41_2645_942)">
<path d="M37.082 41.9062C36.1497 41.9062 35.3945 41.1511 35.3945 40.2188H38.7695C38.7695 41.1511 38.0144 41.9062 37.082 41.9062Z" fill="#FBBE18"/>
</g>
<g clip-path="url(#clip42_2645_942)">
<path d="M37.082 48.6562C36.1497 48.6562 35.3945 47.9011 35.3945 46.9688H38.7695C38.7695 47.9011 38.0144 48.6562 37.082 48.6562Z" fill="#FBBE18"/>
</g>
<g clip-path="url(#clip43_2645_942)">
<path d="M31.5977 53.7188C32.0634 53.7188 32.4414 53.3407 32.4414 52.875V51.1875C32.4414 50.7218 32.0634 50.3438 31.5977 50.3438C31.1319 50.3438 30.7539 50.7218 30.7539 51.1875V52.875C30.7539 53.3407 31.1319 53.7188 31.5977 53.7188Z" fill="#6FA4D8"/>
</g>
<g clip-path="url(#clip44_2645_942)">
<path d="M33.2852 53.7188C33.7509 53.7188 34.1289 53.3407 34.1289 52.875V51.1875C34.1289 50.7218 33.7509 50.3438 33.2852 50.3438C32.8194 50.3438 32.4414 50.7218 32.4414 51.1875V52.875C32.4414 53.3407 32.8194 53.7188 33.2852 53.7188Z" fill="#6FA4D8"/>
</g>
<g clip-path="url(#clip45_2645_942)">
<path d="M34.9727 53.7188C35.4384 53.7188 35.8164 53.3407 35.8164 52.875V51.1875C35.8164 50.7218 35.4384 50.3438 34.9727 50.3438C34.5069 50.3438 34.1289 50.7218 34.1289 51.1875V52.875C34.1289 53.3407 34.5069 53.7188 34.9727 53.7188Z" fill="#6FA4D8"/>
</g>
<g clip-path="url(#clip46_2645_942)">
<path d="M39.1914 53.7188C39.6572 53.7188 40.0352 53.3407 40.0352 52.875V51.1875C40.0352 50.7218 39.6572 50.3438 39.1914 50.3438C38.7257 50.3438 38.3477 50.7218 38.3477 51.1875V52.875C38.3477 53.3407 38.7257 53.7188 39.1914 53.7188Z" fill="#6FA4D8"/>
</g>
<g clip-path="url(#clip47_2645_942)">
<path d="M40.8789 53.7188C41.3447 53.7188 41.7227 53.3407 41.7227 52.875V51.1875C41.7227 50.7218 41.3447 50.3438 40.8789 50.3438C40.4132 50.3438 40.0352 50.7218 40.0352 51.1875V52.875C40.0352 53.3407 40.4132 53.7188 40.8789 53.7188Z" fill="#6FA4D8"/>
</g>
<g clip-path="url(#clip48_2645_942)">
<path d="M42.5664 53.7188C43.0322 53.7188 43.4102 53.3407 43.4102 52.875V51.1875C43.4102 50.7218 43.0322 50.3438 42.5664 50.3438C42.1007 50.3438 41.7227 50.7218 41.7227 51.1875V52.875C41.7227 53.3407 42.1007 53.7188 42.5664 53.7188Z" fill="#6FA4D8"/>
</g>
</g>
</g>
<defs>
<clipPath id="clip0_2645_942">
<rect width="72" height="72" fill="white" transform="translate(0.5)"/>
</clipPath>
<clipPath id="clip1_2645_942">
<rect width="48.4167" height="52.3125" fill="white" transform="translate(12.291 9.84375)"/>
</clipPath>
<clipPath id="clip2_2645_942">
<rect width="3.375" height="10.125" fill="white" transform="translate(26.957 36.8438)"/>
</clipPath>
<clipPath id="clip3_2645_942">
<rect width="3.375" height="10.125" fill="white" transform="translate(43.832 36.8438)"/>
</clipPath>
<clipPath id="clip4_2645_942">
<rect width="20.25" height="30.375" fill="white" transform="translate(26.957 21.6562)"/>
</clipPath>
<clipPath id="clip5_2645_942">
<rect width="15.1875" height="11.8125" fill="white" transform="translate(21.8945 18.2812)"/>
</clipPath>
<clipPath id="clip6_2645_942">
<rect width="15.1875" height="11.8125" fill="white" transform="translate(37.082 18.2812)"/>
</clipPath>
<clipPath id="clip7_2645_942">
<rect width="48.4167" height="10.125" fill="white" transform="translate(12.291 52.0312)"/>
</clipPath>
<clipPath id="clip8_2645_942">
<rect width="28.6875" height="3.37501" fill="white" transform="translate(21.8945 58.7812)"/>
</clipPath>
<clipPath id="clip9_2645_942">
<rect width="28.6875" height="3.37501" fill="white" transform="translate(21.8945 52.0312)"/>
</clipPath>
<clipPath id="clip10_2645_942">
<rect width="28.6875" height="3.375" fill="white" transform="translate(21.8945 55.4062)"/>
</clipPath>
<clipPath id="clip11_2645_942">
<rect width="9.60419" height="10.125" fill="white" transform="translate(12.291 52.0312)"/>
</clipPath>
<clipPath id="clip12_2645_942">
<rect width="9.60356" height="5.0625" fill="white" transform="translate(12.291 52.0312)"/>
</clipPath>
<clipPath id="clip13_2645_942">
<rect width="1.16669" height="1.6875" fill="white" transform="translate(12.291 56.25)"/>
</clipPath>
<clipPath id="clip14_2645_942">
<rect width="3.375" height="10.125" fill="white" transform="translate(50.582 52.0312)"/>
</clipPath>
<clipPath id="clip15_2645_942">
<rect width="3.375" height="5.0625" fill="white" transform="translate(50.582 52.0312)"/>
</clipPath>
<clipPath id="clip16_2645_942">
<rect width="6.75" height="10.125" fill="white" transform="translate(53.957 52.0312)"/>
</clipPath>
<clipPath id="clip17_2645_942">
<rect width="6.75" height="5.0625" fill="white" transform="translate(53.957 52.0312)"/>
</clipPath>
<clipPath id="clip18_2645_942">
<rect width="40.5" height="3.375" fill="white" transform="translate(16.832 11.5312)"/>
</clipPath>
<clipPath id="clip19_2645_942">
<rect width="21.9375" height="3.375" fill="white" transform="translate(16.832 11.5312)"/>
</clipPath>
<clipPath id="clip20_2645_942">
<rect width="22.7813" height="6.75" fill="white" transform="translate(25.6914 14.9062)"/>
</clipPath>
<clipPath id="clip21_2645_942">
<rect width="11.3906" height="3.375" fill="white" transform="translate(25.6914 18.2812)"/>
</clipPath>
<clipPath id="clip22_2645_942">
<rect width="1.6875" height="10.125" fill="white" transform="translate(52.2695 11.5312)"/>
</clipPath>
<clipPath id="clip23_2645_942">
<rect width="18.5625" height="1.6875" fill="white" transform="translate(35.3945 9.84375)"/>
</clipPath>
<clipPath id="clip24_2645_942">
<rect width="3.375" height="3.375" fill="white" transform="translate(51.4258 19.9688)"/>
</clipPath>
<clipPath id="clip25_2645_942">
<rect width="3.375" height="1.6875" fill="white" transform="translate(51.4258 21.6562)"/>
</clipPath>
<clipPath id="clip26_2645_942">
<rect width="1.6875" height="1.6875" fill="white" transform="translate(51.4258 21.6562)"/>
</clipPath>
<clipPath id="clip27_2645_942">
<rect width="2.53125" height="6.75" fill="white" transform="translate(50.582 23.3438)"/>
</clipPath>
<clipPath id="clip28_2645_942">
<rect width="2.53125" height="6.75" fill="white" transform="translate(53.1133 23.3438)"/>
</clipPath>
<clipPath id="clip29_2645_942">
<rect width="0.84375" height="5.90625" fill="white" transform="translate(51.4258 24.1875)"/>
</clipPath>
<clipPath id="clip30_2645_942">
<rect width="0.843742" height="3.375" fill="white" transform="translate(53.957 26.7188)"/>
</clipPath>
<clipPath id="clip31_2645_942">
<rect width="10.125" height="10.125" fill="white" transform="translate(26.957 25.0312)"/>
</clipPath>
<clipPath id="clip32_2645_942">
<rect width="10.125" height="10.125" fill="white" transform="translate(26.957 25.0312)"/>
</clipPath>
<clipPath id="clip33_2645_942">
<rect width="3.375" height="3.375" fill="white" transform="translate(30.332 28.4062)"/>
</clipPath>
<clipPath id="clip34_2645_942">
<rect width="10.125" height="10.125" fill="white" transform="translate(37.082 25.0312)"/>
</clipPath>
<clipPath id="clip35_2645_942">
<rect width="3.375" height="3.375" fill="white" transform="translate(40.457 28.4062)"/>
</clipPath>
<clipPath id="clip36_2645_942">
<rect width="3.10385" height="4.76466" fill="white" transform="translate(35.5312 30.0938)"/>
</clipPath>
<clipPath id="clip37_2645_942">
<rect width="3.375" height="1.6875" fill="white" transform="translate(32.8633 36.8438)"/>
</clipPath>
<clipPath id="clip38_2645_942">
<rect width="3.375" height="1.6875" fill="white" transform="translate(37.9258 36.8438)"/>
</clipPath>
<clipPath id="clip39_2645_942">
<rect width="3.375" height="1.6875" fill="white" transform="translate(32.8633 43.5938)"/>
</clipPath>
<clipPath id="clip40_2645_942">
<rect width="3.375" height="1.6875" fill="white" transform="translate(37.9258 43.5938)"/>
</clipPath>
<clipPath id="clip41_2645_942">
<rect width="3.37501" height="1.6875" fill="white" transform="translate(35.3945 40.2188)"/>
</clipPath>
<clipPath id="clip42_2645_942">
<rect width="3.37501" height="1.6875" fill="white" transform="translate(35.3945 46.9688)"/>
</clipPath>
<clipPath id="clip43_2645_942">
<rect width="1.6875" height="3.375" fill="white" transform="translate(30.7539 50.3438)"/>
</clipPath>
<clipPath id="clip44_2645_942">
<rect width="1.6875" height="3.375" fill="white" transform="translate(32.4414 50.3438)"/>
</clipPath>
<clipPath id="clip45_2645_942">
<rect width="1.6875" height="3.375" fill="white" transform="translate(34.1289 50.3438)"/>
</clipPath>
<clipPath id="clip46_2645_942">
<rect width="1.6875" height="3.375" fill="white" transform="translate(38.3477 50.3438)"/>
</clipPath>
<clipPath id="clip47_2645_942">
<rect width="1.6875" height="3.375" fill="white" transform="translate(40.0352 50.3438)"/>
</clipPath>
<clipPath id="clip48_2645_942">
<rect width="1.6875" height="3.375" fill="white" transform="translate(41.7227 50.3438)"/>
</clipPath>
</defs>
</svg>
