<svg width="73" height="72" viewBox="0 0 73 72" fill="none" xmlns="http://www.w3.org/2000/svg">
<g clip-path="url(#clip0_2645_900)">
<path fill-rule="evenodd" clip-rule="evenodd" d="M14.7599 16.3467C18.891 10.7632 24.822 7.58019 31.5467 5.8314C39.786 3.68875 48.6047 1.15216 55.8263 5.66724C64.7922 11.2729 73.4231 20.6471 71.9871 31.1156C70.5861 41.3286 57.948 44.0953 49.7056 50.2866C40.3624 57.3047 33.215 71.8051 21.9394 68.7086C10.6222 65.6008 8.86945 50.2567 7.27593 38.6347C6.15556 30.4636 9.85585 22.9748 14.7599 16.3467Z" fill="white"/>
<g clip-path="url(#clip1_2645_900)">
<g clip-path="url(#clip2_2645_900)">
<path d="M41.5631 41.9062V33.4688H31.4381V41.9062L19.2881 58.1063C18.0368 59.7752 19.2273 62.1562 21.3131 62.1562H51.6881C53.7738 62.1562 54.9643 59.7752 53.7131 58.1063L41.5631 41.9062Z" fill="#6FA4D8"/>
</g>
<g clip-path="url(#clip3_2645_900)">
<path d="M53.7125 58.1063L41.5625 41.9062V33.4688H36.5H31.4375V35.5781H35.2344C35.933 35.5781 36.5 36.1451 36.5 36.8438V41.9062L43.25 62.1562H51.6875C53.7733 62.1562 54.9638 59.7752 53.7125 58.1063Z" fill="#5C76B2"/>
</g>
<g clip-path="url(#clip4_2645_900)">
<path d="M41.5625 33.4688H31.4375C30.5052 33.4688 29.75 32.7136 29.75 31.7812C29.75 30.8489 30.5052 30.0938 31.4375 30.0938H41.5625C42.4948 30.0938 43.25 30.8489 43.25 31.7812C43.25 32.7136 42.4948 33.4688 41.5625 33.4688Z" fill="#6FA4D8"/>
</g>
<g clip-path="url(#clip5_2645_900)">
<path d="M41.5625 30.0938H36.5C37.4323 30.0938 38.1875 30.8489 38.1875 31.7812C38.1875 32.7136 37.4323 33.4688 36.5 33.4688H41.5625C42.4948 33.4688 43.25 32.7136 43.25 31.7812C43.25 30.8489 42.4948 30.0938 41.5625 30.0938Z" fill="#5C76B2"/>
</g>
<g clip-path="url(#clip6_2645_900)">
<path d="M50 58.7811H23L29.3281 50.3436L29.329 50.3427C31.1211 47.9516 34.7079 47.9507 36.5008 50.3411L36.5017 50.3419C38.2947 52.7314 41.8781 52.7322 43.6719 50.3436L50 58.7811Z" fill="#F68820"/>
</g>
<g clip-path="url(#clip7_2645_900)">
<path d="M43.6719 50.3436L43.671 50.3427C41.8789 47.9516 38.2921 47.9507 36.4992 50.3411L36.4983 50.3419C34.7053 52.7314 31.1219 52.7322 29.3281 50.3436L23 58.7811H50L43.6719 50.3436Z" fill="#FBBE18"/>
</g>
<g clip-path="url(#clip8_2645_900)">
<path d="M43.6725 50.344L43.6716 50.3431C42.4819 48.7552 40.5025 48.2279 38.7812 48.7485L42.1259 58.7815H50.0006L43.6725 50.344Z" fill="#F68820"/>
</g>
<g clip-path="url(#clip9_2645_900)">
<path d="M33.5469 55.8281C34.2459 55.8281 34.8125 55.2615 34.8125 54.5625C34.8125 53.8635 34.2459 53.2969 33.5469 53.2969C32.8479 53.2969 32.2812 53.8635 32.2812 54.5625C32.2812 55.2615 32.8479 55.8281 33.5469 55.8281Z" fill="#F68820"/>
</g>
<g clip-path="url(#clip10_2645_900)">
<path d="M30.5937 57.5156C31.0597 57.5156 31.4375 57.1379 31.4375 56.6719C31.4375 56.2059 31.0597 55.8281 30.5937 55.8281C30.1278 55.8281 29.75 56.2059 29.75 56.6719C29.75 57.1379 30.1278 57.5156 30.5937 57.5156Z" fill="#F68820"/>
</g>
<g clip-path="url(#clip11_2645_900)">
<path d="M32.2812 25.0312C34.6112 25.0312 36.5 23.1425 36.5 20.8125C36.5 18.4825 34.6112 16.5938 32.2812 16.5938C29.9513 16.5938 28.0625 18.4825 28.0625 20.8125C28.0625 23.1425 29.9513 25.0312 32.2812 25.0312Z" fill="#F68820"/>
</g>
<g clip-path="url(#clip12_2645_900)">
<path d="M31.0156 20.8125C31.7146 20.8125 32.2812 20.2459 32.2812 19.5469C32.2812 18.8479 31.7146 18.2812 31.0156 18.2812C30.3166 18.2812 29.75 18.8479 29.75 19.5469C29.75 20.2459 30.3166 20.8125 31.0156 20.8125Z" fill="#FBBE18"/>
</g>
<g clip-path="url(#clip13_2645_900)">
<path d="M40.7187 28.4062C42.1167 28.4062 43.25 27.273 43.25 25.875C43.25 24.477 42.1167 23.3438 40.7187 23.3438C39.3208 23.3438 38.1875 24.477 38.1875 25.875C38.1875 27.273 39.3208 28.4062 40.7187 28.4062Z" fill="#F68820"/>
</g>
<g clip-path="url(#clip14_2645_900)">
<path d="M39.875 25.875C40.341 25.875 40.7188 25.4972 40.7188 25.0312C40.7188 24.5653 40.341 24.1875 39.875 24.1875C39.409 24.1875 39.0312 24.5653 39.0312 25.0312C39.0312 25.4972 39.409 25.875 39.875 25.875Z" fill="#FBBE18"/>
</g>
<g clip-path="url(#clip15_2645_900)">
<path d="M44.3047 10.8984C44.3047 11.4806 43.25 13.2188 43.25 13.2188C43.25 13.2188 42.1953 11.4806 42.1953 10.8984C42.1953 10.3162 42.6678 9.84375 43.25 9.84375C43.8322 9.84375 44.3047 10.3162 44.3047 10.8984Z" fill="#F68820"/>
</g>
<g clip-path="url(#clip16_2645_900)">
<path d="M40.3063 11.989C40.8108 12.2809 41.7887 14.0629 41.7887 14.0629C41.7887 14.0629 39.7561 14.1076 39.2516 13.8166C38.7479 13.5246 38.5749 12.88 38.866 12.3754C39.1571 11.8709 39.8025 11.6979 40.3063 11.989Z" fill="#F68820"/>
</g>
<g clip-path="url(#clip17_2645_900)">
<path d="M39.2518 15.9969C39.7564 15.7058 41.789 15.7505 41.789 15.7505C41.789 15.7505 40.8111 17.5325 40.3065 17.8245C39.8019 18.1156 39.1573 17.9426 38.8654 17.438C38.5751 16.9335 38.7481 16.2888 39.2518 15.9969Z" fill="#F68820"/>
</g>
<g clip-path="url(#clip18_2645_900)">
<path d="M42.1953 18.9141C42.1953 18.3319 43.25 16.5938 43.25 16.5938C43.25 16.5938 44.3047 18.3319 44.3047 18.9141C44.3047 19.4962 43.8322 19.9688 43.25 19.9688C42.6678 19.9688 42.1953 19.4962 42.1953 18.9141Z" fill="#F68820"/>
</g>
<g clip-path="url(#clip19_2645_900)">
<path d="M46.1934 17.8245C45.6888 17.5325 44.7109 15.7505 44.7109 15.7505C44.7109 15.7505 46.7435 15.7058 47.2481 15.9969C47.7527 16.288 47.9256 16.9335 47.6345 17.438C47.3426 17.9426 46.6971 18.1156 46.1934 17.8245Z" fill="#F68820"/>
</g>
<g clip-path="url(#clip20_2645_900)">
<path d="M47.2481 13.8169C46.7435 14.108 44.7109 14.0633 44.7109 14.0633C44.7109 14.0633 45.6888 12.2813 46.1934 11.9894C46.698 11.6974 47.3426 11.8712 47.6337 12.3758C47.9248 12.8804 47.7518 13.525 47.2481 13.8169Z" fill="#F68820"/>
</g>
</g>
</g>
<defs>
<clipPath id="clip0_2645_900">
<rect width="72" height="72" fill="white" transform="translate(0.5)"/>
</clipPath>
<clipPath id="clip1_2645_900">
<rect width="35.4464" height="52.3125" fill="white" transform="translate(18.7773 9.84375)"/>
</clipPath>
<clipPath id="clip2_2645_900">
<rect width="35.4464" height="28.6875" fill="white" transform="translate(18.7773 33.4688)"/>
</clipPath>
<clipPath id="clip3_2645_900">
<rect width="22.7857" height="28.6875" fill="white" transform="translate(31.4375 33.4688)"/>
</clipPath>
<clipPath id="clip4_2645_900">
<rect width="13.5" height="3.375" fill="white" transform="translate(29.75 30.0938)"/>
</clipPath>
<clipPath id="clip5_2645_900">
<rect width="6.75" height="3.375" fill="white" transform="translate(36.5 30.0938)"/>
</clipPath>
<clipPath id="clip6_2645_900">
<rect width="27" height="10.2323" fill="white" transform="translate(23 48.5488)"/>
</clipPath>
<clipPath id="clip7_2645_900">
<rect width="27" height="10.2323" fill="white" transform="translate(23 48.5488)"/>
</clipPath>
<clipPath id="clip8_2645_900">
<rect width="11.2193" height="10.2268" fill="white" transform="translate(38.7812 48.5547)"/>
</clipPath>
<clipPath id="clip9_2645_900">
<rect width="2.53125" height="2.53125" fill="white" transform="translate(32.2812 53.2969)"/>
</clipPath>
<clipPath id="clip10_2645_900">
<rect width="1.6875" height="1.6875" fill="white" transform="translate(29.75 55.8281)"/>
</clipPath>
<clipPath id="clip11_2645_900">
<rect width="8.4375" height="8.4375" fill="white" transform="translate(28.0625 16.5938)"/>
</clipPath>
<clipPath id="clip12_2645_900">
<rect width="2.53125" height="2.53125" fill="white" transform="translate(29.75 18.2812)"/>
</clipPath>
<clipPath id="clip13_2645_900">
<rect width="5.0625" height="5.0625" fill="white" transform="translate(38.1875 23.3438)"/>
</clipPath>
<clipPath id="clip14_2645_900">
<rect width="1.6875" height="1.6875" fill="white" transform="translate(39.0312 24.1875)"/>
</clipPath>
<clipPath id="clip15_2645_900">
<rect width="2.10938" height="3.375" fill="white" transform="translate(42.1953 9.84375)"/>
</clipPath>
<clipPath id="clip16_2645_900">
<rect width="3.06411" height="2.21774" fill="white" transform="translate(38.7246 11.8477)"/>
</clipPath>
<clipPath id="clip17_2645_900">
<rect width="3.06436" height="2.21774" fill="white" transform="translate(38.7246 15.748)"/>
</clipPath>
<clipPath id="clip18_2645_900">
<rect width="2.10938" height="3.375" fill="white" transform="translate(42.1953 16.5938)"/>
</clipPath>
<clipPath id="clip19_2645_900">
<rect width="3.06493" height="2.21774" fill="white" transform="translate(44.7109 15.748)"/>
</clipPath>
<clipPath id="clip20_2645_900">
<rect width="3.06411" height="2.21812" fill="white" transform="translate(44.7109 11.8477)"/>
</clipPath>
</defs>
</svg>
