<svg width="73" height="72" viewBox="0 0 73 72" fill="none" xmlns="http://www.w3.org/2000/svg">
<g clip-path="url(#clip0_2645_854)">
<path fill-rule="evenodd" clip-rule="evenodd" d="M14.7599 16.3467C18.891 10.7632 24.822 7.58019 31.5467 5.8314C39.786 3.68875 48.6047 1.15216 55.8263 5.66724C64.7922 11.2729 73.4231 20.6471 71.9871 31.1156C70.5861 41.3286 57.948 44.0953 49.7056 50.2866C40.3624 57.3047 33.215 71.8051 21.9394 68.7086C10.6222 65.6008 8.86945 50.2567 7.27593 38.6347C6.15556 30.4636 9.85585 22.9748 14.7599 16.3467Z" fill="#B3E3FF"/>
<g clip-path="url(#clip1_2645_854)">
<g clip-path="url(#clip2_2645_854)">
<path d="M39.9023 27.3398C41.7663 27.3398 43.2773 25.8288 43.2773 23.9648C43.2773 22.1009 41.7663 20.5898 39.9023 20.5898C38.0384 20.5898 36.5273 22.1009 36.5273 23.9648C36.5273 25.8288 38.0384 27.3398 39.9023 27.3398Z" fill="#F68820"/>
</g>
<path d="M58.1274 58.3898L43.2774 38.5896V24.3867C43.2774 23.4552 42.5214 22.6992 41.5899 22.6992C40.6584 22.6992 39.9024 23.4552 39.9024 24.3867V38.5896L25.0524 58.3898C24.493 59.1357 24.6448 60.1938 25.3899 60.7523C25.6936 60.981 26.0488 61.0898 26.4015 61.0898C26.9145 61.0898 27.4208 60.857 27.7532 60.4148L39.9032 44.2148V59.4023C39.9032 60.3338 40.6592 61.0898 41.5907 61.0898C42.5222 61.0898 43.2782 60.3338 43.2782 59.4023V44.2148L55.4282 60.4148C55.7598 60.8561 56.2669 61.0898 56.7799 61.0898C57.1318 61.0898 57.4878 60.9801 57.7916 60.7523C58.5349 60.1938 58.6859 59.1357 58.1274 58.3898Z" fill="#55525B"/>
<g clip-path="url(#clip3_2645_854)">
<path d="M36.525 49.2774C35.8205 49.2774 35.11 49.0572 34.5025 48.6024C33.0108 47.4836 32.7096 45.3683 33.8275 43.8766L38.89 37.1266C40.0097 35.6357 42.1241 35.3353 43.615 36.4516C45.1068 37.5704 45.408 39.6857 44.29 41.1774L39.2275 47.9274C38.5644 48.8117 37.551 49.2774 36.525 49.2774Z" fill="#5C76B2"/>
</g>
<g clip-path="url(#clip4_2645_854)">
<path d="M46.6548 49.2783C45.6288 49.2783 44.6155 48.8125 43.9523 47.9283L38.8898 41.1783C37.7718 39.6865 38.0739 37.5721 39.5648 36.4524C41.0549 35.3353 43.1701 35.6348 44.2898 37.1274L49.3523 43.8774C50.4703 45.3692 50.1682 47.4836 48.6773 48.6033C48.0698 49.0589 47.3593 49.2783 46.6548 49.2783Z" fill="#5C76B2"/>
</g>
<g clip-path="url(#clip5_2645_854)">
<g clip-path="url(#clip6_2645_854)">
<path d="M57.3481 19.1211L54.0246 18.5347C51.2714 18.0495 48.6457 19.8881 48.1597 22.6412C47.6745 25.3944 49.5131 28.0201 52.2662 28.5061L55.5898 29.0925C58.3429 29.5777 60.9687 27.7392 61.4547 24.986C61.9398 22.232 60.1013 19.6062 57.3481 19.1211Z" fill="#F68820"/>
</g>
<g clip-path="url(#clip7_2645_854)">
<path d="M53.1445 28.582C55.9405 28.582 58.207 26.3155 58.207 23.5195C58.207 20.7236 55.9405 18.457 53.1445 18.457C50.3486 18.457 48.082 20.7236 48.082 23.5195C48.082 26.3155 50.3486 28.582 53.1445 28.582Z" fill="#FBBE18"/>
</g>
<g clip-path="url(#clip8_2645_854)">
<path d="M52.5586 26.8447L40.9258 24.7936L42.0977 18.1465L53.7305 20.1976C55.5665 20.5216 56.7917 22.2716 56.4685 24.1076C56.1445 25.9419 54.3946 27.1679 52.5586 26.8447Z" fill="#6FA4D8"/>
</g>
<g clip-path="url(#clip9_2645_854)">
<path d="M40.9258 24.7923L52.5586 26.8434C54.3946 27.1674 56.1445 25.9415 56.4685 24.1055L41.5122 21.4688L40.9258 24.7923Z" fill="#5C76B2"/>
</g>
<g clip-path="url(#clip10_2645_854)">
<path d="M37.3086 25.8683L25.6758 23.8171L27.4342 13.8457L39.0669 15.8969C41.8201 16.382 43.6586 19.0078 43.1735 21.7618C42.6883 24.5158 40.0626 26.3543 37.3086 25.8683Z" fill="#6FA4D8"/>
</g>
<g clip-path="url(#clip11_2645_854)">
<path d="M25.6758 23.8177L37.3086 25.8689C40.0617 26.3541 42.6875 24.5155 43.1735 21.7624L26.555 18.832L25.6758 23.8177Z" fill="#5C76B2"/>
</g>
<g clip-path="url(#clip12_2645_854)">
<path d="M24.6967 9.93669L21.3732 9.35028C16.784 8.54113 12.4083 11.6056 11.5983 16.1948C10.7892 20.7839 13.8537 25.1596 18.4428 25.9696L21.7664 26.556C26.3555 27.3652 30.732 24.3007 31.5412 19.7115C32.3504 15.1215 29.2859 10.7458 24.6967 9.93669Z" fill="#F68820"/>
</g>
<g clip-path="url(#clip13_2645_854)">
<path d="M19.9082 26.0977C24.5681 26.0977 28.3457 22.3201 28.3457 17.6602C28.3457 13.0003 24.5681 9.22266 19.9082 9.22266C15.2483 9.22266 11.4707 13.0003 11.4707 17.6602C11.4707 22.3201 15.2483 26.0977 19.9082 26.0977Z" fill="#FBBE18"/>
</g>
<g clip-path="url(#clip14_2645_854)">
<path d="M19.9082 24.4102C23.6361 24.4102 26.6582 21.3881 26.6582 17.6602C26.6582 13.9322 23.6361 10.9102 19.9082 10.9102C16.1803 10.9102 13.1582 13.9322 13.1582 17.6602C13.1582 21.3881 16.1803 24.4102 19.9082 24.4102Z" fill="#55525B"/>
</g>
<g clip-path="url(#clip15_2645_854)">
<path d="M19.063 10.9609C16.8591 11.2385 14.9185 12.597 13.9043 14.573C14.2207 15.8218 15.2349 16.8343 16.5857 17.0731C18.4217 17.3971 20.1717 16.1711 20.4957 14.3351C20.7328 12.9843 20.1286 11.6849 19.063 10.9609Z" fill="#B3B4B6"/>
</g>
</g>
<g clip-path="url(#clip16_2645_854)">
<path d="M43.2773 27.3398C45.1413 27.3398 46.6523 25.8288 46.6523 23.9648C46.6523 22.1009 45.1413 20.5898 43.2773 20.5898C41.4134 20.5898 39.9023 22.1009 39.9023 23.9648C39.9023 25.8288 41.4134 27.3398 43.2773 27.3398Z" fill="#FBBE18"/>
</g>
<g clip-path="url(#clip17_2645_854)">
<path d="M43.2773 25.6523C44.2093 25.6523 44.9648 24.8968 44.9648 23.9648C44.9648 23.0329 44.2093 22.2773 43.2773 22.2773C42.3454 22.2773 41.5898 23.0329 41.5898 23.9648C41.5898 24.8968 42.3454 25.6523 43.2773 25.6523Z" fill="#55525B"/>
</g>
<g clip-path="url(#clip18_2645_854)">
<path d="M26.4023 62.7773C28.2663 62.7773 29.7773 61.2663 29.7773 59.4023C29.7773 57.5384 28.2663 56.0273 26.4023 56.0273C24.5384 56.0273 23.0273 57.5384 23.0273 59.4023C23.0273 61.2663 24.5384 62.7773 26.4023 62.7773Z" fill="#F68820"/>
</g>
<g clip-path="url(#clip19_2645_854)">
<path d="M56.7773 62.7773C58.6413 62.7773 60.1523 61.2663 60.1523 59.4023C60.1523 57.5384 58.6413 56.0273 56.7773 56.0273C54.9134 56.0273 53.4023 57.5384 53.4023 59.4023C53.4023 61.2663 54.9134 62.7773 56.7773 62.7773Z" fill="#F68820"/>
</g>
<g clip-path="url(#clip20_2645_854)">
<path d="M41.5898 62.7773C43.4538 62.7773 44.9648 61.2663 44.9648 59.4023C44.9648 57.5384 43.4538 56.0273 41.5898 56.0273C39.7259 56.0273 38.2148 57.5384 38.2148 59.4023C38.2148 61.2663 39.7259 62.7773 41.5898 62.7773Z" fill="#F68820"/>
</g>
<g clip-path="url(#clip21_2645_854)">
<path d="M41.5898 49.2773C39.726 49.2773 38.2148 47.7662 38.2148 45.9023V39.1523C38.2148 37.2885 39.726 35.7773 41.5898 35.7773C43.4537 35.7773 44.9648 37.2885 44.9648 39.1523V45.9023C44.9648 47.7662 43.4537 49.2773 41.5898 49.2773Z" fill="#F68820"/>
</g>
<g clip-path="url(#clip22_2645_854)">
<path d="M41.5898 49.2773C39.726 49.2773 38.2148 47.7662 38.2148 45.9023V39.1523C38.2148 37.2885 39.726 35.7773 41.5898 35.7773C43.4537 35.7773 44.9648 37.2885 44.9648 39.1523V45.9023C44.9648 47.7662 43.4537 49.2773 41.5898 49.2773Z" fill="#6FA4D8"/>
</g>
</g>
</g>
<defs>
<clipPath id="clip0_2645_854">
<rect width="72" height="72" fill="white" transform="translate(0.5)"/>
</clipPath>
<clipPath id="clip1_2645_854">
<rect width="50.0636" height="53.5567" fill="white" transform="translate(11.4688 9.2207)"/>
</clipPath>
<clipPath id="clip2_2645_854">
<rect width="6.75" height="6.75" fill="white" transform="translate(36.5273 20.5898)"/>
</clipPath>
<clipPath id="clip3_2645_854">
<rect width="11.8129" height="13.5001" fill="white" transform="translate(33.1523 35.7773)"/>
</clipPath>
<clipPath id="clip4_2645_854">
<rect width="11.8124" height="13.5009" fill="white" transform="translate(38.2148 35.7773)"/>
</clipPath>
<clipPath id="clip5_2645_854">
<rect width="50.0636" height="19.9493" fill="white" transform="translate(11.4688 9.2207)"/>
</clipPath>
<clipPath id="clip6_2645_854">
<rect width="13.4503" height="10.7132" fill="white" transform="translate(48.082 18.457)"/>
</clipPath>
<clipPath id="clip7_2645_854">
<rect width="10.125" height="10.125" fill="white" transform="translate(48.082 18.457)"/>
</clipPath>
<clipPath id="clip8_2645_854">
<rect width="15.5944" height="8.7499" fill="white" transform="translate(40.9258 18.1465)"/>
</clipPath>
<clipPath id="clip9_2645_854">
<rect width="15.5427" height="5.42661" fill="white" transform="translate(40.9258 21.4688)"/>
</clipPath>
<clipPath id="clip10_2645_854">
<rect width="17.5753" height="12.1005" fill="white" transform="translate(25.6758 13.8457)"/>
</clipPath>
<clipPath id="clip11_2645_854">
<rect width="17.4977" height="7.11453" fill="white" transform="translate(25.6758 18.832)"/>
</clipPath>
<clipPath id="clip12_2645_854">
<rect width="20.202" height="17.4649" fill="white" transform="translate(11.4688 9.2207)"/>
</clipPath>
<clipPath id="clip13_2645_854">
<rect width="16.875" height="16.875" fill="white" transform="translate(11.4707 9.22266)"/>
</clipPath>
<clipPath id="clip14_2645_854">
<rect width="13.5" height="13.5" fill="white" transform="translate(13.1582 10.9102)"/>
</clipPath>
<clipPath id="clip15_2645_854">
<rect width="6.64261" height="6.16405" fill="white" transform="translate(13.9043 10.9609)"/>
</clipPath>
<clipPath id="clip16_2645_854">
<rect width="6.75" height="6.75" fill="white" transform="translate(39.9023 20.5898)"/>
</clipPath>
<clipPath id="clip17_2645_854">
<rect width="3.375" height="3.37499" fill="white" transform="translate(41.5898 22.2773)"/>
</clipPath>
<clipPath id="clip18_2645_854">
<rect width="6.75" height="6.75" fill="white" transform="translate(23.0273 56.0273)"/>
</clipPath>
<clipPath id="clip19_2645_854">
<rect width="6.75" height="6.75" fill="white" transform="translate(53.4023 56.0273)"/>
</clipPath>
<clipPath id="clip20_2645_854">
<rect width="6.75" height="6.75" fill="white" transform="translate(38.2148 56.0273)"/>
</clipPath>
<clipPath id="clip21_2645_854">
<rect width="6.75" height="13.5" fill="white" transform="translate(38.2148 35.7773)"/>
</clipPath>
<clipPath id="clip22_2645_854">
<rect width="6.75" height="13.5" fill="white" transform="translate(38.2148 35.7773)"/>
</clipPath>
</defs>
</svg>
